<mxfile host="app.diagrams.net" modified="2024-05-10T03:41:25.913Z" agent="Mozilla/5.0 (Windows NT 10.0; Win64; x64) AppleWebKit/537.36 (KHTML, like Gecko) Chrome/124.0.0.0 Safari/537.36" etag="M9v2OVPsk2uhbL4UCFlM" version="24.3.1" type="github">
  <diagram name="Page-1" id="13e1069c-82ec-6db2-03f1-153e76fe0fe0">
    <mxGraphModel dx="794" dy="420" grid="1" gridSize="10" guides="1" tooltips="1" connect="1" arrows="1" fold="1" page="1" pageScale="1" pageWidth="1100" pageHeight="850" background="none" math="0" shadow="0">
      <root>
        <mxCell id="0" />
        <mxCell id="1" parent="0" />
        <mxCell id="7baba1c4bc27f4b0-2" value=":cmcf-bpm" style="shape=umlLifeline;perimeter=lifelinePerimeter;whiteSpace=wrap;html=1;container=1;collapsible=0;recursiveResize=0;outlineConnect=0;rounded=1;shadow=0;comic=0;labelBackgroundColor=none;strokeWidth=1;fontFamily=Verdana;fontSize=12;align=center;" parent="1" vertex="1">
          <mxGeometry x="504" y="80" width="100" height="670" as="geometry" />
        </mxCell>
        <mxCell id="7baba1c4bc27f4b0-10" value="" style="html=1;points=[];perimeter=orthogonalPerimeter;rounded=0;shadow=0;comic=0;labelBackgroundColor=none;strokeWidth=1;fontFamily=Verdana;fontSize=12;align=center;" parent="7baba1c4bc27f4b0-2" vertex="1">
          <mxGeometry x="45" y="80" width="10" height="120" as="geometry" />
        </mxCell>
        <mxCell id="sF7c5ne8xNVPPS51PT5F-4" value="&lt;div&gt;③&lt;/div&gt;1.无本地记录&lt;div&gt;2.无审批人信息&lt;br&gt;&lt;div&gt;3.查询审批人并返回&lt;/div&gt;&lt;/div&gt;" style="html=1;verticalAlign=bottom;endArrow=block;labelBackgroundColor=none;fontFamily=Verdana;fontSize=12;edgeStyle=elbowEdgeStyle;elbow=horizontal;exitX=0.859;exitY=0.17;exitDx=0;exitDy=0;exitPerimeter=0;align=left;" parent="7baba1c4bc27f4b0-2" source="7baba1c4bc27f4b0-10" target="7baba1c4bc27f4b0-10" edge="1">
          <mxGeometry x="0.1674" y="10" relative="1" as="geometry">
            <mxPoint x="60" y="100" as="sourcePoint" />
            <Array as="points">
              <mxPoint x="140" y="102" />
            </Array>
            <mxPoint x="190.00000000000023" y="100" as="targetPoint" />
            <mxPoint as="offset" />
          </mxGeometry>
        </mxCell>
        <mxCell id="sF7c5ne8xNVPPS51PT5F-13" value="" style="html=1;points=[];perimeter=orthogonalPerimeter;rounded=0;shadow=0;comic=0;labelBackgroundColor=none;strokeWidth=1;fontFamily=Verdana;fontSize=12;align=center;" parent="7baba1c4bc27f4b0-2" vertex="1">
          <mxGeometry x="45" y="240" width="10" height="120" as="geometry" />
        </mxCell>
        <mxCell id="sF7c5ne8xNVPPS51PT5F-15" value="&lt;span style=&quot;font-family: Verdana; font-size: 12px; background-color: rgb(251, 251, 251);&quot;&gt;⑨返回审批中状态&lt;/span&gt;" style="html=1;verticalAlign=bottom;endArrow=block;curved=0;rounded=0;" parent="7baba1c4bc27f4b0-2" edge="1">
          <mxGeometry width="80" relative="1" as="geometry">
            <mxPoint x="30" y="330" as="sourcePoint" />
            <mxPoint x="-84" y="330" as="targetPoint" />
          </mxGeometry>
        </mxCell>
        <mxCell id="sF7c5ne8xNVPPS51PT5F-31" value="" style="html=1;points=[];perimeter=orthogonalPerimeter;rounded=0;shadow=0;comic=0;labelBackgroundColor=none;strokeWidth=1;fontFamily=Verdana;fontSize=12;align=center;" parent="7baba1c4bc27f4b0-2" vertex="1">
          <mxGeometry x="45" y="390" width="10" height="120" as="geometry" />
        </mxCell>
        <mxCell id="7baba1c4bc27f4b0-3" value=":cmcf-cp" style="shape=umlLifeline;perimeter=lifelinePerimeter;whiteSpace=wrap;html=1;container=1;collapsible=0;recursiveResize=0;outlineConnect=0;rounded=1;shadow=0;comic=0;labelBackgroundColor=none;strokeWidth=1;fontFamily=Verdana;fontSize=12;align=center;" parent="1" vertex="1">
          <mxGeometry x="850" y="95" width="100" height="665" as="geometry" />
        </mxCell>
        <mxCell id="7baba1c4bc27f4b0-13" value="" style="html=1;points=[];perimeter=orthogonalPerimeter;rounded=0;shadow=0;comic=0;labelBackgroundColor=none;strokeWidth=1;fontFamily=Verdana;fontSize=12;align=center;" parent="7baba1c4bc27f4b0-3" vertex="1">
          <mxGeometry x="45" y="570" width="10" height="90" as="geometry" />
        </mxCell>
        <mxCell id="7baba1c4bc27f4b0-8" value=":cmcf-admin-fronted" style="shape=umlLifeline;perimeter=lifelinePerimeter;whiteSpace=wrap;html=1;container=1;collapsible=0;recursiveResize=0;outlineConnect=0;rounded=1;shadow=0;comic=0;labelBackgroundColor=none;strokeWidth=1;fontFamily=Verdana;fontSize=12;align=center;" parent="1" vertex="1">
          <mxGeometry x="350" y="80" width="100" height="670" as="geometry" />
        </mxCell>
        <mxCell id="7baba1c4bc27f4b0-9" value="" style="html=1;points=[];perimeter=orthogonalPerimeter;rounded=0;shadow=0;comic=0;labelBackgroundColor=none;strokeWidth=1;fontFamily=Verdana;fontSize=12;align=center;" parent="7baba1c4bc27f4b0-8" vertex="1">
          <mxGeometry x="45" y="80" width="10" height="130" as="geometry" />
        </mxCell>
        <mxCell id="sF7c5ne8xNVPPS51PT5F-10" value="⑥第二次访问:(审批人)" style="html=1;verticalAlign=bottom;endArrow=block;labelBackgroundColor=none;fontFamily=Verdana;fontSize=12;edgeStyle=elbowEdgeStyle;elbow=vertical;" parent="7baba1c4bc27f4b0-8" edge="1">
          <mxGeometry relative="1" as="geometry">
            <mxPoint x="-80" y="250" as="sourcePoint" />
            <mxPoint x="30" y="250" as="targetPoint" />
          </mxGeometry>
        </mxCell>
        <mxCell id="sF7c5ne8xNVPPS51PT5F-11" value="" style="html=1;points=[];perimeter=orthogonalPerimeter;rounded=0;shadow=0;comic=0;labelBackgroundColor=none;strokeWidth=1;fontFamily=Verdana;fontSize=12;align=center;" parent="7baba1c4bc27f4b0-8" vertex="1">
          <mxGeometry x="45" y="240" width="10" height="130" as="geometry" />
        </mxCell>
        <mxCell id="sF7c5ne8xNVPPS51PT5F-12" value="⑦第二次访问:(审批人)" style="html=1;verticalAlign=bottom;endArrow=block;labelBackgroundColor=none;fontFamily=Verdana;fontSize=12;edgeStyle=elbowEdgeStyle;elbow=vertical;" parent="7baba1c4bc27f4b0-8" edge="1">
          <mxGeometry relative="1" as="geometry">
            <mxPoint x="70" y="250" as="sourcePoint" />
            <mxPoint x="180" y="250" as="targetPoint" />
          </mxGeometry>
        </mxCell>
        <mxCell id="sF7c5ne8xNVPPS51PT5F-34" value="" style="html=1;points=[];perimeter=orthogonalPerimeter;rounded=0;shadow=0;comic=0;labelBackgroundColor=none;strokeWidth=1;fontFamily=Verdana;fontSize=12;align=center;" parent="7baba1c4bc27f4b0-8" vertex="1">
          <mxGeometry x="45" y="390" width="10" height="280" as="geometry" />
        </mxCell>
        <mxCell id="sF7c5ne8xNVPPS51PT5F-35" value="12第2+次访问:(审批人?)" style="html=1;verticalAlign=bottom;endArrow=block;labelBackgroundColor=none;fontFamily=Verdana;fontSize=12;edgeStyle=elbowEdgeStyle;elbow=vertical;" parent="7baba1c4bc27f4b0-8" edge="1">
          <mxGeometry relative="1" as="geometry">
            <mxPoint x="70" y="400" as="sourcePoint" />
            <mxPoint x="180" y="400" as="targetPoint" />
            <mxPoint as="offset" />
          </mxGeometry>
        </mxCell>
        <mxCell id="sF7c5ne8xNVPPS51PT5F-32" value="&lt;div&gt;&lt;font face=&quot;Verdana&quot;&gt;&lt;span style=&quot;font-size: 12px; background-color: rgb(251, 251, 251);&quot;&gt;14返回&lt;/span&gt;&lt;/font&gt;&lt;span style=&quot;background-color: rgb(251, 251, 251); font-size: 12px; font-family: Verdana;&quot;&gt;其余状态返回信息&lt;/span&gt;&lt;/div&gt;" style="html=1;verticalAlign=bottom;endArrow=block;curved=0;rounded=0;align=left;" parent="7baba1c4bc27f4b0-8" edge="1">
          <mxGeometry x="1" y="-10" width="80" relative="1" as="geometry">
            <mxPoint x="170" y="490" as="sourcePoint" />
            <mxPoint x="60" y="490" as="targetPoint" />
            <mxPoint as="offset" />
          </mxGeometry>
        </mxCell>
        <mxCell id="7baba1c4bc27f4b0-14" value="②调用审批接口" style="html=1;verticalAlign=bottom;endArrow=block;labelBackgroundColor=none;fontFamily=Verdana;fontSize=12;edgeStyle=elbowEdgeStyle;elbow=vertical;exitX=0.976;exitY=0.157;exitDx=0;exitDy=0;exitPerimeter=0;entryX=0.035;entryY=0.157;entryDx=0;entryDy=0;entryPerimeter=0;" parent="1" source="7baba1c4bc27f4b0-9" target="7baba1c4bc27f4b0-10" edge="1">
          <mxGeometry relative="1" as="geometry">
            <mxPoint x="410" y="180" as="sourcePoint" />
            <mxPoint x="530" y="180" as="targetPoint" />
          </mxGeometry>
        </mxCell>
        <mxCell id="sF7c5ne8xNVPPS51PT5F-1" value=":用户" style="shape=umlLifeline;perimeter=lifelinePerimeter;whiteSpace=wrap;html=1;container=1;collapsible=0;recursiveResize=0;outlineConnect=0;rounded=1;shadow=0;comic=0;labelBackgroundColor=none;strokeWidth=1;fontFamily=Verdana;fontSize=12;align=center;" parent="1" vertex="1">
          <mxGeometry x="200" y="80" width="100" height="670" as="geometry" />
        </mxCell>
        <mxCell id="sF7c5ne8xNVPPS51PT5F-2" value="" style="html=1;points=[];perimeter=orthogonalPerimeter;rounded=0;shadow=0;comic=0;labelBackgroundColor=none;strokeWidth=1;fontFamily=Verdana;fontSize=12;align=center;" parent="sF7c5ne8xNVPPS51PT5F-1" vertex="1">
          <mxGeometry x="45" y="80" width="10" height="590" as="geometry" />
        </mxCell>
        <mxCell id="sF7c5ne8xNVPPS51PT5F-3" value="①.第一次访问" style="html=1;verticalAlign=bottom;endArrow=block;labelBackgroundColor=none;fontFamily=Verdana;fontSize=12;edgeStyle=elbowEdgeStyle;elbow=vertical;exitX=0.878;exitY=0.039;exitDx=0;exitDy=0;exitPerimeter=0;entryX=0.153;entryY=0.148;entryDx=0;entryDy=0;entryPerimeter=0;" parent="1" source="sF7c5ne8xNVPPS51PT5F-2" target="7baba1c4bc27f4b0-9" edge="1">
          <mxGeometry relative="1" as="geometry">
            <mxPoint x="260" y="180" as="sourcePoint" />
            <mxPoint x="390" y="180" as="targetPoint" />
          </mxGeometry>
        </mxCell>
        <mxCell id="sF7c5ne8xNVPPS51PT5F-7" value="④返回审批人记录" style="html=1;verticalAlign=bottom;endArrow=block;curved=0;rounded=0;entryX=0.937;entryY=0.755;entryDx=0;entryDy=0;entryPerimeter=0;" parent="1" target="7baba1c4bc27f4b0-9" edge="1">
          <mxGeometry width="80" relative="1" as="geometry">
            <mxPoint x="534.12" y="260.0000000000001" as="sourcePoint" />
            <mxPoint x="410" y="260" as="targetPoint" />
          </mxGeometry>
        </mxCell>
        <mxCell id="sF7c5ne8xNVPPS51PT5F-9" value="⑤显示审批人列表" style="html=1;verticalAlign=bottom;endArrow=block;curved=0;rounded=0;entryX=0.898;entryY=0.228;entryDx=0;entryDy=0;entryPerimeter=0;exitX=0.044;exitY=0.76;exitDx=0;exitDy=0;exitPerimeter=0;" parent="1" source="7baba1c4bc27f4b0-9" edge="1">
          <mxGeometry width="80" relative="1" as="geometry">
            <mxPoint x="390" y="260" as="sourcePoint" />
            <mxPoint x="253.98000000000002" y="260" as="targetPoint" />
          </mxGeometry>
        </mxCell>
        <mxCell id="sF7c5ne8xNVPPS51PT5F-14" value="&lt;div&gt;⑧&lt;/div&gt;1.无本地记录&lt;div&gt;2.存在审批人信息&lt;/div&gt;&lt;div&gt;3.发起审批&lt;/div&gt;&lt;div&gt;4.更新本地记录&lt;/div&gt;&lt;div&gt;5.返回审批中状态&lt;/div&gt;" style="html=1;verticalAlign=bottom;endArrow=block;labelBackgroundColor=none;fontFamily=Verdana;fontSize=12;edgeStyle=elbowEdgeStyle;elbow=horizontal;exitX=0.859;exitY=0.17;exitDx=0;exitDy=0;exitPerimeter=0;align=left;" parent="1" edge="1">
          <mxGeometry x="0.245" y="4" relative="1" as="geometry">
            <mxPoint x="564" y="331" as="sourcePoint" />
            <Array as="points">
              <mxPoint x="650" y="333" />
            </Array>
            <mxPoint x="565" y="409" as="targetPoint" />
            <mxPoint as="offset" />
          </mxGeometry>
        </mxCell>
        <mxCell id="sF7c5ne8xNVPPS51PT5F-16" value="&lt;font face=&quot;Verdana&quot;&gt;&lt;span style=&quot;font-size: 12px; background-color: rgb(251, 251, 251);&quot;&gt;⑩提示：审批中&lt;/span&gt;&lt;/font&gt;" style="html=1;verticalAlign=bottom;endArrow=block;curved=0;rounded=0;" parent="1" edge="1">
          <mxGeometry width="80" relative="1" as="geometry">
            <mxPoint x="370" y="410" as="sourcePoint" />
            <mxPoint x="270" y="410" as="targetPoint" />
          </mxGeometry>
        </mxCell>
        <mxCell id="sF7c5ne8xNVPPS51PT5F-33" value="11第2+次访问:(审批人?)" style="html=1;verticalAlign=bottom;endArrow=block;labelBackgroundColor=none;fontFamily=Verdana;fontSize=12;edgeStyle=elbowEdgeStyle;elbow=vertical;" parent="1" edge="1">
          <mxGeometry relative="1" as="geometry">
            <mxPoint x="270" y="480" as="sourcePoint" />
            <mxPoint x="380" y="480" as="targetPoint" />
            <mxPoint as="offset" />
          </mxGeometry>
        </mxCell>
        <mxCell id="sF7c5ne8xNVPPS51PT5F-36" value="&lt;div&gt;13&lt;/div&gt;1.有本地记录&lt;div&gt;2.成功状态|(&lt;span style=&quot;background-color: initial;&quot;&gt;失败|审批中&lt;/span&gt;&lt;span style=&quot;background-color: initial;&quot;&gt;)重新查询&lt;/span&gt;&lt;/div&gt;&lt;div&gt;3.返回状态(成功|异常|审批中)&lt;/div&gt;" style="html=1;verticalAlign=bottom;endArrow=block;labelBackgroundColor=none;fontFamily=Verdana;fontSize=12;edgeStyle=elbowEdgeStyle;elbow=horizontal;exitX=0.859;exitY=0.17;exitDx=0;exitDy=0;exitPerimeter=0;align=left;" parent="1" edge="1">
          <mxGeometry x="0.2" y="4" relative="1" as="geometry">
            <mxPoint x="574" y="480" as="sourcePoint" />
            <Array as="points">
              <mxPoint x="660" y="482" />
            </Array>
            <mxPoint x="574" y="568" as="targetPoint" />
            <mxPoint as="offset" />
          </mxGeometry>
        </mxCell>
        <mxCell id="sF7c5ne8xNVPPS51PT5F-37" value="&lt;span style=&quot;background-color: rgb(251, 251, 251); font-size: 12px; font-family: Verdana;&quot;&gt;15展示提示&lt;/span&gt;" style="html=1;verticalAlign=bottom;endArrow=block;curved=0;rounded=0;align=left;" parent="1" edge="1">
          <mxGeometry x="1" y="-10" width="80" relative="1" as="geometry">
            <mxPoint x="380" y="570" as="sourcePoint" />
            <mxPoint x="260" y="570" as="targetPoint" />
            <mxPoint as="offset" />
          </mxGeometry>
        </mxCell>
        <mxCell id="sF7c5ne8xNVPPS51PT5F-40" value="15通过：请求实际数据" style="html=1;verticalAlign=bottom;endArrow=block;labelBackgroundColor=none;fontFamily=Verdana;fontSize=12;edgeStyle=elbowEdgeStyle;elbow=horizontal;" parent="1" edge="1">
          <mxGeometry relative="1" as="geometry">
            <mxPoint x="420" y="690" as="sourcePoint" />
            <mxPoint x="890" y="690" as="targetPoint" />
          </mxGeometry>
        </mxCell>
        <mxCell id="V1fHz345CNSLFwuJzkbq-1" value="&lt;div&gt;14.1&amp;nbsp;&lt;/div&gt;&lt;div&gt;保存成功状态到store&lt;/div&gt;&lt;div&gt;减少请求次数&lt;/div&gt;" style="html=1;verticalAlign=bottom;endArrow=block;labelBackgroundColor=none;fontFamily=Verdana;fontSize=12;edgeStyle=elbowEdgeStyle;elbow=horizontal;exitX=0.859;exitY=0.17;exitDx=0;exitDy=0;exitPerimeter=0;align=right;" edge="1" parent="1">
          <mxGeometry x="0.1667" y="-10" relative="1" as="geometry">
            <mxPoint x="418" y="590" as="sourcePoint" />
            <Array as="points">
              <mxPoint x="540" y="630" />
            </Array>
            <mxPoint x="418" y="678" as="targetPoint" />
            <mxPoint as="offset" />
          </mxGeometry>
        </mxCell>
        <mxCell id="V1fHz345CNSLFwuJzkbq-2" value="&lt;div&gt;&lt;font face=&quot;Verdana&quot;&gt;&lt;span style=&quot;font-size: 12px; background-color: rgb(251, 251, 251);&quot;&gt;16返回数据&lt;/span&gt;&lt;/font&gt;&lt;/div&gt;" style="html=1;verticalAlign=bottom;endArrow=block;curved=0;rounded=0;align=left;" edge="1" parent="1">
          <mxGeometry x="1" y="-10" width="80" relative="1" as="geometry">
            <mxPoint x="880" y="740" as="sourcePoint" />
            <mxPoint x="410" y="740" as="targetPoint" />
            <mxPoint as="offset" />
          </mxGeometry>
        </mxCell>
        <mxCell id="V1fHz345CNSLFwuJzkbq-3" value="&lt;div&gt;&lt;font face=&quot;Verdana&quot;&gt;&lt;span style=&quot;font-size: 12px; background-color: rgb(251, 251, 251);&quot;&gt;17返回数据&lt;/span&gt;&lt;/font&gt;&lt;/div&gt;" style="html=1;verticalAlign=bottom;endArrow=block;curved=0;rounded=0;align=left;" edge="1" parent="1">
          <mxGeometry x="1" y="-10" width="80" relative="1" as="geometry">
            <mxPoint x="370" y="740" as="sourcePoint" />
            <mxPoint x="280" y="740" as="targetPoint" />
            <mxPoint as="offset" />
          </mxGeometry>
        </mxCell>
      </root>
    </mxGraphModel>
  </diagram>
</mxfile>
